{"accessors" : [{"bufferView" : 0, "byteOffset" : 0, "componentType" : 5123, "count" : 1428, "type" : "SCALAR", "max" : [1250], "min" : [0]}, {"bufferView" : 1, "byteOffset" : 0, "componentType" : 5126, "count" : 1251, "type" : "VEC3", "max" : [0.6671749949455261, 0.5869449973106384, 1.0108469724655151], "min" : [-0.809141993522644, -0.438510000705719, -1.0539510250091553], "name" : "POSITION"}, {"bufferView" : 1, "byteOffset" : 12, "componentType" : 5126, "count" : 1251, "type" : "VEC3", "max" : [0.9131836891174316, 0.9920847415924072, 0.9970386028289795], "min" : [-0.963447093963623, -0.9961618185043335, -0.9970386028289795], "name" : "NORMAL"}, {"bufferView" : 1, "byteOffset" : 24, "componentType" : 5126, "count" : 1251, "type" : "VEC2", "max" : [1.0009880065917969, 0.9648380279541016], "min" : [0.003513999981805682, -0.0033030000049620867], "name" : "TEXCOORD_0"}, {"bufferView" : 0, "byteOffset" : 2856, "componentType" : 5123, "count" : 8604, "type" : "SCALAR", "max" : [7492], "min" : [0]}, {"bufferView" : 2, "byteOffset" : 0, "componentType" : 5126, "count" : 7493, "type" : "VEC3", "max" : [1.0618129968643188, 1.0459959506988525, 1.0235029458999634], "min" : [-1.0447520017623901, -0.8587020039558411, -0.8476349711418152], "name" : "POSITION"}, {"bufferView" : 2, "byteOffset" : 12, "componentType" : 5126, "count" : 7493, "type" : "VEC3", "max" : [0.9982011914253235, 0.9988978505134583, 0.9960536956787109], "min" : [-0.9965212941169739, -0.9976259469985962, -0.997563898563385], "name" : "NORMAL"}, {"bufferView" : 2, "byteOffset" : 24, "componentType" : 5126, "count" : 7493, "type" : "VEC2", "max" : [0.997967004776001, 0.9611330032348633], "min" : [0.0022269999608397484, 0.18835100531578064], "name" : "TEXCOORD_0"}, {"bufferView" : 0, "byteOffset" : 20064, "componentType" : 5123, "count" : 960, "type" : "SCALAR", "max" : [959], "min" : [0]}, {"bufferView" : 3, "byteOffset" : 0, "componentType" : 5126, "count" : 960, "type" : "VEC3", "max" : [1.0283219814300537, 1.0283219814300537, 1.030208945274353], "min" : [-1.0283219814300537, -1.0283219814300537, -1.030208945274353], "name" : "POSITION"}, {"bufferView" : 3, "byteOffset" : 12, "componentType" : 5126, "count" : 960, "type" : "VEC3", "max" : [0.9922839999198914, 0.9922839999198914, 0.9877956509590149], "min" : [-0.9922839999198914, -0.9922839999198914, -0.9877956509590149], "name" : "NORMAL"}, {"bufferView" : 3, "byteOffset" : 24, "componentType" : 5126, "count" : 960, "type" : "VEC2", "max" : [1, 0.4723820090293884], "min" : [0, 0], "name" : "TEXCOORD_0"}], "asset" : {"generator" : "Aspose.3D 23.2", "version" : "2.0"}, "buffers" : [{"uri" : "data:application/octet-stream;base64,", "byteLength" : 373744}], "bufferViews" : [{"buffer" : 0, "byteOffset" : 0, "byteLength" : 21984, "target" : 34963}, {"buffer" : 0, "byteOffset" : 21988, "byteLength" : 45696, "byteStride" : 32, "target" : 34962}, {"buffer" : 0, "byteOffset" : 67688, "byteLength" : 275328, "byteStride" : 32, "target" : 34962}, {"buffer" : 0, "byteOffset" : 343020, "byteLength" : 30720, "byteStride" : 32, "target" : 34962}], "materials" : [{"name" : "material", "pbrMetallicRoughness" : {"baseColorFactor" : [1, 1, 1, 1], "metallicFactor" : 0, "roughnessFactor" : 0.8063508326896291}, "emissiveFactor" : [0, 0, 0], "alphaMode" : "OPAQUE", "doubleSided" : true}, {"name" : "Material", "pbrMetallicRoughness" : {"baseColorFactor" : [0, 0.253054, 0.023236, 1], "metallicFactor" : 0, "roughnessFactor" : 0.8504651218778779}, "emissiveFactor" : [0, 0, 0], "alphaMode" : "OPAQUE", "doubleSided" : true}, {"name" : "Material.001", "pbrMetallicRoughness" : {"baseColorFactor" : [0, 0.00015, 0.20187, 1], "metallicFactor" : 0, "roughnessFactor" : 0.7618689467077491}, "emissiveFactor" : [0, 0, 0], "alphaMode" : "OPAQUE", "doubleSided" : true}], "meshes" : [{"primitives" : [{"attributes" : {"POSITION" : 1, "NORMAL" : 2, "TEXCOORD_0" : 3}, "indices" : 0, "material" : 0, "mode" : 4}]}, {"primitives" : [{"attributes" : {"POSITION" : 5, "NORMAL" : 6, "TEXCOORD_0" : 7}, "indices" : 4, "material" : 1, "mode" : 4}]}, {"primitives" : [{"attributes" : {"POSITION" : 9, "NORMAL" : 10, "TEXCOORD_0" : 11}, "indices" : 8, "material" : 2, "mode" : 4}]}], "nodes" : [{"mesh" : 0, "name" : "Object_2"}, {"mesh" : 1, "name" : "Object_3"}, {"mesh" : 2, "name" : "Object_4"}, {"children" : [0, 1, 2], "name" : "LowPolyEarth2.obj.cleaner.materialmerger.gles"}, {"children" : [3], "matrix" : [1, 0, 0, 0, 0, 2.220446049250313E-16, -1, 0, 0, 1, 2.220446049250313E-16, 0, 0, 0, 0, 1], "name" : "Sketchfab_model"}], "scene" : 0, "scenes" : [{"nodes" : [4]}]}